<?xml version="1.0" encoding="UTF-8"?>
<svg width="2e3" height="800" version="1.1" viewBox="0 0 0 1052.3622" xmlns="http://www.w3.org/2000/svg">
 <g transform="translate(0 -252.36)">
  <path d="m210.08 641.69c0 127.52-43.945 230.89-98.154 230.89-13.552 0-35.351-0.84217-47.094-12.527-35.228-35.05-51.061-122.73-51.061-218.37 0-85.358 15.25-173.96 44.53-213.91 14.462-19.732 35.703-16.972 53.625-16.972 54.21 0 98.154 103.37 98.154 230.88"/>
  <path d="m209.64 641.69s-0.0806-4.5356-0.23283-13.048c-0.28357-8.5048-0.75818-21.001-2.4865-36.731-0.82683-7.8666-1.9372-16.545-3.5998-25.869-1.6059-9.3319-3.573-19.359-6.1908-29.857-5.158-20.964-12.647-44.14-24.172-66.486-5.755-11.133-12.588-22.006-20.868-31.36-4.1939-4.5772-8.6743-8.8485-13.552-12.372-4.8864-3.4933-10.188-6.118-15.713-7.6437-1.397-0.47584-2.7342-0.68355-4.0685-0.89882l-2.0148-0.36255-2.3402-0.12085-2.3492-0.11707-2.1671-0.0113-4.77-0.0264c-6.2983-0.0529-12.558-0.17749-18.584 0.7742-6.0445 0.8535-11.823 2.8551-16.886 6.4315-1.1791 0.98568-2.5551 1.9223-3.5491 3.0061l-1.6059 1.5522-1.7969 2.1564-0.90444 1.099c0-4e-3 -0.31939 0.39654-0.05373 0.0604l-0.19402 0.28702-0.38207 0.57026-1.5373 2.2924-3.0775 4.6074c-7.7549 12.972-13.767 28.226-18.668 44.231-4.9073 16.043-8.6385 32.962-11.722 50.221-3.0745 17.266-5.2804 34.971-6.8744 52.83-1.6656 17.912-2.7133 35.775-3.0417 54.039-0.22089 18.025 0.05671 36.21 0.97608 54.209 1.0656 18.007 2.8924 35.866 5.6356 53.351 1.2865 8.7692 3.0864 17.357 4.9103 25.869 1.0268 4.2146 2.0477 8.4179 3.0685 12.614 1.2149 4.1013 2.4298 8.1876 3.6387 12.266 5.1431 16.096 11.752 31.349 20.334 43.921l3.3014 4.4299c1.1014 1.4728 2.1104 2.9797 3.4685 4.309l3.8088 4.0938 0.94922 1.0272c0.10149 0.0944 0.44476 0.4985 0.34626 0.34366l0.46864 0.39276c0.63281 0.50984 1.2119 1.0876 1.8805 1.5408 5.2416 3.7841 11.406 5.7743 17.566 6.9224 6.1818 1.1858 12.459 1.5068 18.683 1.5673 6.3639 0.1435 12.134-0.068 17.716-1.8165 5.5789-1.6957 10.925-4.3619 15.82-7.961 4.8953-3.6142 9.3668-7.9647 13.555-12.595 8.2654-9.4716 15.05-20.42 20.778-31.598 11.468-22.425 18.934-45.617 24.071-66.603 2.6118-10.499 4.5789-20.529 6.1818-29.865 1.6596-9.3281 2.7641-18.01 3.5879-25.881 1.7193-15.733 2.1701-28.237 2.4417-36.727 0.1403-8.5237 0.21492-13.063 0.21492-13.063m0.89549 8e-3s-0.0418 4.5508-0.1194 13.078c-0.21193 8.5426-0.64475 21.058-1.8746 36.938-1.4149 15.835-3.2327 35.171-7.5937 56.833-4.3431 21.591-10.528 45.946-21.766 70.029-2.77 6.0312-5.9818 11.93-9.4683 17.757-3.6357 5.695-7.537 11.337-11.997 16.538-8.8683 10.314-19.987 19.276-33.005 22.803-6.4744 1.8316-13.337 1.8354-19.623 1.4917-6.4445-0.35877-13.014-1.0952-19.617-2.7229-6.5759-1.6239-13.316-4.09-19.45-8.9693-0.77012-0.58159-1.4835-1.3369-2.2268-1.9978l-0.54923-0.51738c-0.44774-0.43431-0.38506-0.42675-0.60595-0.66468l-0.9134-1.0725-3.6596-4.3128c-1.2537-1.3407-2.382-3.1043-3.5342-4.7811l-3.4417-5.0568c-8.6116-13.8-14.62-29.85-19.608-46.353-4.9043-16.587-8.4922-33.906-11.307-51.527-5.5759-35.288-8.2444-71.717-8.8385-108.33-0.2776-18.124 0.17014-36.633 1.2716-54.783 1.2179-18.188 3.0685-36.274 5.8266-54.05 2.788-17.769 6.5042-35.209 11.37-52.022 4.9073-16.772 10.991-33.007 19.34-47.456 1.0895-1.7674 2.2417-3.4782 3.3611-5.2116l1.6895-2.5869 0.42386-0.64579 0.21193-0.32478 0.38506-0.4985 0.88952-1.1179 1.8059-2.2395 2.2984-2.383c1.5522-1.6352 3.1223-2.7078 4.7103-4.0069 6.5102-4.6414 13.644-6.9942 20.471-7.9799 6.8594-1.0763 13.48-0.96302 19.844-0.87993l4.7103 0.10196 2.5521 0.0604 2.3492 0.15861 2.3402 0.15862 2.6118 0.46074c1.7522 0.29457 3.4834 0.62691 5.0744 1.1858 13.137 3.7841 24.259 12.904 33.115 23.339 4.4506 5.257 8.337 10.948 11.952 16.681 3.4685 5.8688 6.6744 11.79 9.4265 17.848 11.182 24.162 17.34 48.536 21.665 70.138 4.355 21.681 6.1699 41.017 7.5698 56.856 1.2238 15.888 1.6358 28.403 1.8357 36.942 0.0657 8.5388 0.0985 13.097 0.0985 13.097" fill="#fff"/>
  <path d="m324.05 641.71c0 171.3-59.036 310.18-131.86 310.18-18.205 0-47.491-1.1292-63.266-16.825-47.326-47.082-68.594-164.87-68.594-293.35 0-114.67 20.486-233.69 59.822-287.37 19.426-26.511 47.965-22.803 72.039-22.803 72.824 0 131.86 138.87 131.86 310.17"/>
  <path d="m323.6 641.71s-0.10149-6.0991-0.28954-17.538c-0.36715-11.428-0.99399-28.215-3.2267-49.378-1.0865-10.578-2.5253-22.255-4.6774-34.812-2.0865-12.572-4.6595-26.085-8.0952-40.243-6.7878-28.275-16.62-59.613-32.044-89.942-7.6952-15.121-16.895-29.899-28.121-42.675-5.6774-6.2653-11.779-12.1-18.444-16.93-6.6714-4.7924-13.934-8.4142-21.53-10.533-1.9104-0.65334-3.776-0.95169-5.6386-1.2538l-2.8059-0.50606-3.1461-0.16617-3.1581-0.16994-2.973-0.0227c-2.1283-0.0151-4.2595-0.0302-6.3968-0.0453-8.4743-0.0755-16.946-0.2417-25.184 1.0612-8.2534 1.167-16.25 3.9125-23.304 8.9013-0.87459 0.63824-1.6955 1.3747-2.5521 2.0507-0.87161 0.676-1.7014 1.3784-2.4118 2.1602l-2.2775 2.2244c-0.794 0.90638-1.6089 1.9487-2.4148 2.9155l-1.2119 1.4804c-0.0269 0.0264-0.37312 0.45696-0.13133 0.15484l-0.26268 0.39276-0.51938 0.78175-2.0925 3.127c-1.385 2.096-2.8208 4.1466-4.1819 6.2917-10.519 17.678-18.611 38.34-25.196 59.975-6.5848 21.681-11.597 44.499-15.686 67.77-4.0775 23.29-6.9788 47.131-9.0564 71.184-2.1402 24.106-3.4446 48.211-3.7819 72.721-0.20895 24.272 0.25671 48.702 1.582 72.903 1.5701 24.193 4.0864 48.189 7.7042 71.724 1.7164 11.794 4.1222 23.347 6.5669 34.805 1.3731 5.6724 2.7432 11.33 4.1073 16.972 1.6238 5.5289 3.2417 11.039 4.8565 16.534 6.8833 21.693 15.659 42.324 27.19 59.424l4.4595 6.0614c1.4865 2.0091 2.8656 4.0824 4.6685 5.865l5.0953 5.5402 1.2686 1.3822c0.1582 0.15484 0.54624 0.62691 0.51042 0.52494l0.64177 0.5476c0.87161 0.70622 1.6716 1.5144 2.585 2.1413 7.1967 5.2796 15.576 8.0327 23.924 9.6566 8.3758 1.6692 16.859 2.1715 25.256 2.3037 8.54 0.22659 16.477-0.0227 24.13-2.383 7.6445-2.2848 14.955-5.9518 21.638-10.846 6.6803-4.9208 12.773-10.842 18.447-17.153 11.209-12.893 20.363-27.746 28.032-42.913 15.367-30.413 25.175-61.762 31.942-90.056 3.4327-14.166 5.9998-27.682 8.0833-40.254 2.1522-12.561 3.5849-24.245 4.6655-34.824 2.2268-21.168 2.8327-37.958 3.185-49.378 0.17611-11.45 0.27163-17.553 0.27163-17.553m0.89549 8e-3s-0.0627 6.1142-0.17612 17.569c-0.29551 11.466-0.88056 28.279-2.6148 49.59-1.9402 21.254-4.5819 47.162-10.576 76.162-5.9729 28.898-14.501 61.418-29.638 93.485-3.7252 8.0365-8.0534 15.873-12.716 23.63-4.8595 7.5758-10.062 15.08-16.005 21.976-5.946 6.8771-12.54 13.188-19.826 18.509-7.2982 5.257-15.349 9.4074-23.889 11.741-8.543 2.4434-17.575 2.485-26.035 2.0544-8.6176-0.42675-17.393-1.3482-26.193-3.4556-4.3968-1.0386-8.8056-2.3717-13.149-4.2675-4.3282-1.8996-8.6594-4.1391-12.656-7.4322-1.0179-0.76287-1.9522-1.741-2.9312-2.6058l-0.72236-0.67223c-0.51043-0.4834-0.4955-0.54382-0.77012-0.84217l-1.2328-1.4275-4.9431-5.7592c-1.7014-1.7939-3.1969-4.124-4.7371-6.3408l-4.5998-6.6883c-11.561-18.328-19.737-39.749-26.465-61.849-6.6535-22.202-11.444-45.455-15.262-69.084-3.8267-23.641-6.549-47.747-8.3191-72.057-1.8298-24.317-2.8447-48.752-3.1521-73.352-0.26566-24.366 0.43282-49.122 2.0119-73.461 1.7044-24.381 4.2476-48.612 8.0086-72.408 3.7969-23.777 8.7907-47.12 15.337-69.575 6.5878-22.399 14.749-44.042 25.865-63.197 1.4447-2.3377 2.979-4.6036 4.4655-6.8998l2.2447-3.4253 0.56117-0.8535 0.28059-0.42675 0.46267-0.5967 1.197-1.4955 2.4238-2.9948 2.973-3.059c0.98802-1.0612 2.0089-1.9298 3.0357-2.738 1.0298-0.82706 2.0357-1.7032 3.0864-2.4736 8.5012-6.0538 17.85-9.1506 26.886-10.453 9.0743-1.4238 17.904-1.2689 26.447-1.167 2.1193 0.0415 4.2297 0.0831 6.3371 0.12462l1.5671 0.0227 0.78205 8e-3 1.0119 0.0453 3.1521 0.20394 3.1461 0.20771 3.4088 0.60047c2.2805 0.38898 4.5401 0.80818 6.6415 1.5484 8.5877 2.5001 16.686 6.692 23.996 12.059 7.2982 5.4042 13.883 11.802 19.829 18.724 5.9341 6.9526 11.122 14.506 15.961 22.123 4.6446 7.7948 8.9608 15.658 12.671 23.721 15.077 32.15 23.581 64.681 29.536 93.598 5.9818 29.011 8.6265 54.922 10.552 76.184 1.7283 21.315 2.2924 38.132 2.576 49.59 0.10149 11.466 0.15522 17.584 0.15522 17.584" fill="#e6e6e6"/>
  <path d="m369.68 641.63c0 171.3-59.036 310.18-131.86 310.18-18.205 0-47.491-1.1292-63.266-16.825-47.326-47.082-68.594-164.87-68.594-293.35 0-114.67 20.486-233.69 59.822-287.37 19.426-26.511 47.965-22.803 72.039-22.803 72.824 0 131.86 138.87 131.86 310.17"/>
  <path d="m369.23 641.62s-0.10149-6.0991-0.28954-17.538c-0.36715-11.428-0.99399-28.215-3.2267-49.378-1.0865-10.578-2.5253-22.255-4.6774-34.812-2.0865-12.572-4.6595-26.085-8.0952-40.243-6.7878-28.275-16.62-59.613-32.044-89.942-7.6952-15.121-16.895-29.899-28.121-42.675-5.6774-6.2653-11.779-12.1-18.444-16.93-6.6714-4.7924-13.934-8.4142-21.53-10.533-1.9104-0.65334-3.776-0.95169-5.6386-1.2538l-2.8059-0.50606-3.1461-0.16617-3.1581-0.16994-2.973-0.0227c-2.1283-0.0151-4.2595-0.0302-6.3968-0.0453-8.4743-0.0755-16.946-0.2417-25.184 1.0612-8.2534 1.167-16.25 3.9125-23.304 8.9013-0.87459 0.63824-1.6955 1.3747-2.5521 2.0507-0.87161 0.676-1.7014 1.3784-2.4118 2.1602l-2.2775 2.2244c-0.794 0.90638-1.6089 1.9487-2.4148 2.9155l-1.2119 1.4804c-0.0269 0.0264-0.37312 0.45696-0.13133 0.15484l-0.26268 0.39276-0.51938 0.78175-2.0925 3.127c-1.385 2.096-2.8208 4.1466-4.1819 6.2917-10.519 17.678-18.611 38.34-25.196 59.975-6.5848 21.681-11.597 44.499-15.686 67.77-4.0774 23.29-6.9788 47.131-9.0564 71.184-2.1402 24.106-3.4446 48.211-3.7819 72.721-0.20895 24.272 0.2567 48.702 1.582 72.903 1.5701 24.193 4.0864 48.189 7.7042 71.724 1.7164 11.794 4.1222 23.347 6.5669 34.805 1.3731 5.6724 2.7432 11.33 4.1073 16.972 1.6238 5.5289 3.2417 11.039 4.8565 16.534 6.8833 21.693 15.659 42.324 27.19 59.424l4.4595 6.0614c1.4865 2.0091 2.8656 4.0824 4.6685 5.865l5.0953 5.5402 1.2686 1.3822c0.1582 0.15484 0.54624 0.62691 0.51042 0.52494l0.64177 0.5476c0.87161 0.70622 1.6716 1.5144 2.585 2.1413 7.1967 5.2796 15.576 8.0327 23.924 9.6566 8.3758 1.6692 16.859 2.1715 25.256 2.3037 8.54 0.22659 16.477-0.0227 24.13-2.383 7.6445-2.2848 14.955-5.9518 21.638-10.846 6.6803-4.9208 12.773-10.842 18.447-17.153 11.209-12.893 20.363-27.746 28.032-42.913 15.367-30.413 25.175-61.762 31.942-90.056 3.4327-14.166 5.9998-27.682 8.0833-40.254 2.1522-12.561 3.5849-24.245 4.6655-34.824 2.2268-21.168 2.8327-37.958 3.185-49.378 0.17611-11.45 0.27163-17.553 0.27163-17.553m0.89549 8e-3s-0.0627 6.1142-0.17612 17.569c-0.29551 11.466-0.88056 28.279-2.6148 49.59-1.9402 21.254-4.5819 47.162-10.576 76.162-5.9729 28.898-14.501 61.418-29.638 93.485-3.7252 8.0365-8.0534 15.873-12.716 23.63-4.8595 7.5758-10.062 15.08-16.005 21.976-5.946 6.8771-12.54 13.188-19.826 18.509-7.2982 5.257-15.349 9.4074-23.889 11.741-8.543 2.4434-17.575 2.485-26.035 2.0544-8.6176-0.42675-17.393-1.3482-26.193-3.4556-4.3968-1.0386-8.8056-2.3717-13.149-4.2675-4.3282-1.8996-8.6594-4.1391-12.656-7.4322-1.0179-0.76287-1.9522-1.741-2.9312-2.6058l-0.72236-0.67223c-0.51043-0.4834-0.4955-0.54382-0.77012-0.84217l-1.2328-1.4275-4.9431-5.7592c-1.7014-1.7939-3.1969-4.124-4.7371-6.3408l-4.5998-6.6883c-11.561-18.328-19.737-39.748-26.465-61.849-6.6535-22.202-11.444-45.455-15.262-69.084-3.8267-23.641-6.549-47.747-8.3191-72.057-1.8298-24.317-2.8447-48.752-3.1521-73.352-0.26566-24.366 0.43282-49.122 2.0119-73.461 1.7044-24.381 4.2476-48.612 8.0086-72.408 3.7969-23.777 8.7907-47.12 15.337-69.575 6.5878-22.399 14.749-44.042 25.865-63.197 1.4447-2.3377 2.979-4.6036 4.4655-6.8998l2.2447-3.4253 0.56117-0.8535 0.28059-0.42675 0.46267-0.5967 1.197-1.4955 2.4238-2.9948 2.973-3.059c0.98802-1.0612 2.0089-1.9298 3.0357-2.738 1.0298-0.82706 2.0357-1.7032 3.0864-2.4736 8.5012-6.0538 17.85-9.1506 26.886-10.453 9.0743-1.4238 17.904-1.2689 26.447-1.167 2.1193 0.0415 4.2297 0.0831 6.3371 0.12462l1.5671 0.0227 0.78205 8e-3 1.0119 0.0453 3.1521 0.20394 3.1461 0.20771 3.4088 0.60047c2.2805 0.38898 4.5401 0.80818 6.6415 1.5484 8.5877 2.5001 16.686 6.692 23.996 12.059 7.2982 5.4042 13.883 11.802 19.829 18.724 5.9341 6.9526 11.122 14.506 15.961 22.123 4.6446 7.7948 8.9608 15.658 12.671 23.721 15.077 32.15 23.581 64.681 29.536 93.598 5.9818 29.011 8.6265 54.922 10.552 76.184 1.7283 21.315 2.2924 38.132 2.576 49.59 0.10149 11.466 0.15522 17.584 0.15522 17.584" fill="#e6e6e6"/>
  <path d="m365.65 641.63c0 171.3-49.446 310.18-110.44 310.18s-104.47-138.87-104.47-310.18 43.476-310.17 104.47-310.17 110.44 138.87 110.44 310.17"/>
  <path d="m365.21 641.62s-0.0776-5.6875-0.22387-16.352c-0.31939-10.657-0.72236-26.319-2.4208-46.112-1.5701-19.8-4.6864-43.698-9.6414-70.614-5.17-26.817-12.474-56.765-24.101-87.091-1.4835-3.7652-2.9312-7.6022-4.5968-11.326-0.81191-1.8769-1.6268-3.7652-2.4477-5.661-0.86862-1.8543-1.7432-3.7161-2.6208-5.5893-1.6835-3.803-3.6894-7.3718-5.558-11.103-2.0566-3.5462-3.973-7.2963-6.2445-10.707-4.3282-7.047-9.2026-13.675-14.593-19.615-5.3938-5.9216-11.385-11.103-17.952-14.683-1.6716-0.76664-3.3043-1.741-5.0147-2.3679-1.7074-0.53249-3.4626-1.3331-5.1341-1.6768l-2.5044-0.52116c-0.82683-0.18883-1.6358-0.40787-2.6805-0.4192l-2.9611-0.18882-1.4835-0.0944c0.40894 4e-3 -0.0806 0.0189-0.0776 0.0264l-0.33431 0.0264-0.67162 0.0566c-7.1848 0.25681-14.352 2.7418-20.981 7.1415-13.337 8.856-24.226 24.419-33.112 41.704-4.4148 8.7389-8.3877 17.995-11.997 27.595-3.5014 9.6718-6.7758 19.597-9.6146 29.823-5.7669 20.412-10.131 41.78-13.776 63.518-3.579 21.768-6.1818 44.004-7.9877 66.448-1.8954 22.478-2.976 45.024-3.2894 67.789-0.24775 22.693 0.25671 45.413 1.6149 67.978 1.5193 22.542 3.8386 44.918 7.152 66.879 1.6984 10.971 3.6476 21.836 5.961 32.512 2.2118 10.714 4.8386 21.224 7.7639 31.512 2.9074 10.299 6.2236 20.325 9.8802 30.035 3.7431 9.6566 7.8534 18.973 12.414 27.773 9.1519 17.421 20.486 33.067 34.303 41.856 0.86265 0.5325 1.7044 1.1254 2.579 1.605l2.6656 1.2878c1.7462 0.96302 3.576 1.5446 5.3908 2.1338 1.8208 0.74021 3.582 0.91771 5.3431 1.2991 1.6447 0.47962 3.8416 0.33611 5.764 0.52494 7.152 0.18127 14.543-1.9034 21.083-5.6799 13.265-7.5909 23.915-20.809 32.572-34.846 2.2626-3.4329 4.17-7.2057 6.2177-10.775 1.8537-3.7539 3.8506-7.3416 5.5192-11.163 0.8716-1.877 1.7402-3.7463 2.6059-5.6082 0.8149-1.9034 1.6238-3.7954 2.4327-5.6762 1.6566-3.7388 3.0954-7.5871 4.567-11.364 11.558-30.394 18.841-60.349 23.987-87.182 4.9491-26.923 8.0624-50.821 9.6205-70.629 1.6895-19.8 2.0716-35.462 2.379-46.112 0.13134-10.673 0.20298-16.368 0.20298-16.368m0.89549 8e-3s-0.0358 5.6988-0.10746 16.379c-0.25074 10.691-0.60893 26.364-1.8059 46.274-1.3343 19.884-3.2596 44.065-7.3937 71.483-4.3133 27.312-10.241 58.178-21.328 89.923-5.5968 15.805-12.355 31.923-21.498 46.958-4.4506 7.6098-9.6892 14.763-15.578 21.296-5.8983 6.4919-12.555 12.406-20.142 16.504-7.6027 4.1164-15.91 6.3748-24.644 5.933-2.0268-0.23415-3.8476-0.16995-6.1192-0.80063-2.1701-0.51739-4.4028-0.9177-6.3998-1.8203-2.0566-0.76664-4.1163-1.5333-6.0595-2.6927l-2.9611-1.5899c-0.96414-0.58536-1.8865-1.2765-2.8297-1.9109-7.531-5.1777-14.158-12.191-19.975-20.065-5.8057-7.9043-10.919-16.628-15.355-25.907-4.4386-9.2752-8.3609-18.985-11.883-28.981-3.3849-10.061-6.6176-20.273-9.3668-30.764-5.558-20.956-9.8772-42.633-13.417-64.681-3.5193-22.048-6.0445-44.526-7.7669-67.181-1.8626-22.64-2.9163-45.485-3.1849-68.356-0.29253-22.803 0.18506-45.825 1.5104-68.548 1.4328-22.761 3.6745-45.375 6.9311-67.623 3.3402-22.217 7.6773-44.08 13.367-65.176 2.8178-10.563 6.0923-20.881 9.6324-30.983 3.6536-10.049 7.7131-19.816 12.298-29.151 9.1996-18.501 20.945-35.681 36.521-46.127 7.737-5.1512 16.432-8.2631 25.133-8.5274l0.81191-0.0491 0.40595-0.0264c0.25372 4e-3 0.0119-0.0378 0.66863 0l1.4805 0.1133 2.9581 0.23037c0.93429 0.0151 2.0656 0.26814 3.176 0.50606l3.3014 0.71754c2.191 0.50228 4.1312 1.4049 6.1938 2.0998 2.0178 0.78174 3.9163 1.9109 5.8684 2.8588 7.6236 4.2826 14.316 10.246 20.208 16.843 5.8863 6.6241 11.098 13.849 15.537 21.504 9.1071 15.136 15.808 31.319 21.375 47.154 11.02 31.817 16.922 62.691 21.214 90.022 4.1252 27.422 6.0505 51.603 7.3699 71.494 1.191 19.918 1.5283 35.59 1.7671 46.274 0.0567 10.691 0.0866 16.394 0.0866 16.394" fill="#e6e6e6"/>
  <path d="m304.91 641.63c0 77.087-22.25 139.58-49.697 139.58-27.45 0-43.733-62.491-43.733-139.58s16.283-139.58 43.733-139.58c27.447 0 49.697 62.491 49.697 139.58"/>
  <path d="m304.46 641.62s-0.0478-2.5416-0.13432-7.3114c-0.17313-4.7622-0.36118-11.768-1.2626-20.597-0.81191-8.8296-2.3611-19.483-4.9043-31.376-2.582-11.858-6.1878-25.027-11.534-38.215-2.7103-6.5448-5.7669-13.184-9.5578-19.2-3.8088-5.9141-8.2653-11.568-13.588-14.54-1.3253-0.7251-2.6745-1.3029-4.0476-1.7108l-1.8298-0.40409c-0.78504-0.0831-1.7402-0.10952-2.6059-0.16239-0.1194-0.0113 0.40893 0.0151 0.12536 0.0113l-0.13133 0.0151-0.2597 0.0264-0.52535 0.0416-1.0507 0.068c-0.68356 0.1775-1.382 0.27569-2.0686 0.47585-1.3641 0.46074-2.7193 1.0574-4.0267 1.9147-5.2744 3.4027-9.7787 10.019-13.447 17.576-7.346 15.359-11.492 34.363-14.48 53.616-1.4925 9.6831-2.6059 19.578-3.4088 29.57-0.89548 10.031-1.4895 19.997-1.794 30.231-0.2567 10.072-0.23879 20.257 0.11642 30.341 0.4358 10.087 1.2417 20.114 2.5432 29.959 2.6835 19.555 7.1072 38.895 15.107 54.499 3.9312 7.7117 8.8982 14.464 14.686 17.818 5.749 3.3762 12.107 2.8173 17.408-0.5476 5.4117-3.2705 9.8265-9.0637 13.599-15.084 3.7521-6.1218 6.755-12.814 9.4325-19.393 5.2804-13.259 8.8623-26.436 11.42-38.309 2.5342-11.9 4.0864-22.561 4.8804-31.391 0.89549-8.8334 1.0626-15.843 1.2208-20.601 0.0746-4.7773 0.11641-7.3227 0.11641-7.3227m0.89549 8e-3c-3e-3 0 0.1373 10.204-0.66863 28.094-0.48058 8.9391-1.1791 19.8-2.6924 32.233-1.6417 12.368-3.9282 26.432-8.7101 41.036-2.3969 7.285-5.4416 14.683-9.5578 21.73-2.0148 3.5575-4.4446 6.896-7.1609 10.015-2.7312 3.0854-5.8356 5.9821-9.4683 7.9912-3.6028 2.0242-7.6833 3.244-11.823 3.1534l-0.38506-0.0189-0.16716-0.0151-0.33133-0.0302-0.66565-0.0831-1.3522-0.17372c-1.0835-0.26436-2.2178-0.50228-3.2506-0.86105-1.9969-0.74776-3.9342-1.7297-5.7281-3.0061-7.2266-5.1701-12.155-13.494-15.85-22.138-3.7163-8.7352-6.2475-18.143-8.4564-27.686-2.1134-9.5887-3.8267-19.385-5.1879-29.34-1.3432-9.955-2.3969-20.05-3.182-30.216-0.86564-10.174-1.4238-20.39-1.6895-30.715-0.2985-10.159-0.31342-20.597 9e-3 -30.82 0.42386-10.265 1.1671-20.492 2.3193-30.605 1.2-10.11 2.8924-20.08 5.1431-29.808 2.2775-9.7171 5.1311-19.223 9.125-28.101 3.964-8.8031 9.3489-17.263 17.092-22.384 1.9223-1.2614 3.9879-2.2131 6.1013-2.9117 1.0626-0.32478 2.1492-0.50983 3.2208-0.74776l1.6178-0.13973 0.81191-0.0566 0.40297-0.0227 0.20297-0.0113c-0.17312-4e-3 0.46864 0.0113 0.45969 0.0113l2.6954 0.25303c1.1283 0.23037 2.3074 0.44941 3.37 0.77042 2.0357 0.6609 3.976 1.5597 5.8117 2.6436 7.3131 4.5016 12.546 11.488 16.638 18.55 4.0774 7.1452 7.0684 14.604 9.4354 21.927 4.7132 14.672 6.9729 28.743 8.5937 41.13 1.5044 12.436 2.2029 23.301 2.6715 32.244 0.78206 17.893 0.60296 28.109 0.60595 28.109" fill="#e6e6e6"/>
  <path d="m1789.9 641.69c0 127.52 43.944 230.89 98.154 230.89 13.552 0 35.351-0.84217 47.094-12.527 35.228-35.05 51.061-122.73 51.061-218.37 0-85.358-15.25-173.96-44.53-213.91-14.462-19.732-35.703-16.972-53.625-16.972-54.21 0-98.154 103.37-98.154 230.88"/>
  <path d="m1789.5 641.7s0.036-4.5583 0.099-13.097c0.203-8.5388 0.6119-21.054 1.8328-36.942 1.4029-15.839 3.2207-35.175 7.5758-56.856 4.3252-21.602 10.483-45.976 21.662-70.138 2.7521-6.0538 5.958-11.979 9.4265-17.848 3.6178-5.7328 7.4982-11.424 11.952-16.681 8.8563-10.435 19.978-19.555 33.115-23.339 1.591-0.55893 3.3252-0.89126 5.0744-1.1858l2.6118-0.46074 2.3432-0.15862 2.3492-0.15861 2.5491-0.0604 4.7073-0.10197c6.3669-0.0831 12.988-0.1926 19.85 0.87994 6.8236 0.98568 13.961 3.3385 20.468 7.9798 1.588 1.2991 3.1581 2.3717 4.7073 4.0107l2.3044 2.3792 1.7999 2.2395 0.8925 1.1179 0.3851 0.49851 0.2119 0.32478 0.4239 0.64579 1.6895 2.5869c1.1193 1.7334 2.2745 3.4442 3.361 5.2116 8.349 14.449 14.432 30.684 19.34 47.456 4.8654 16.813 8.5817 34.253 11.37 52.022 2.7581 17.776 4.6057 35.862 5.8296 54.05 1.1014 18.15 1.5462 36.663 1.2686 54.783-0.594 36.617-3.2596 73.046-8.8385 108.33-2.8148 17.621-6.4027 34.941-11.307 51.527-4.9878 16.504-10.997 32.554-19.608 46.353l-3.4416 5.0568c-1.1522 1.6768-2.2805 3.4404-3.5342 4.7811l-3.6596 4.3128-0.9134 1.0725c-0.2179 0.23792-0.1552 0.23037-0.6059 0.66467l-0.5492 0.51739c-0.7433 0.6609-1.4537 1.4162-2.2268 1.9978-6.1341 4.8793-12.874 7.3454-19.45 8.9693-6.6027 1.6277-13.173 2.3641-19.614 2.7229-6.2864 0.34367-13.152 0.33989-19.626-1.4917-13.014-3.5273-24.133-12.489-33.005-22.803-4.4595-5.2003-8.3579-10.842-11.994-16.538-3.4865-5.8272-6.6983-11.726-9.4713-17.757-11.238-24.083-17.423-48.438-21.766-70.029-4.361-21.662-6.1759-40.998-7.5937-56.833-1.2299-15.88-1.6627-28.396-1.8746-36.938-0.075-8.5275-0.1194-13.078-0.1194-13.078m0.8985-8e-3s0.072 4.5394 0.2119 13.063c0.2716 8.4897 0.7224 20.994 2.4417 36.727 0.8238 7.8703 1.9283 16.553 3.5909 25.881 1.6029 9.3356 3.567 19.366 6.1789 29.865 5.1401 20.986 12.602 44.178 24.068 66.603 5.7311 11.179 12.519 22.127 20.781 31.598 4.1909 4.63 8.6594 8.9806 13.552 12.595 4.8983 3.599 10.244 6.2653 15.823 7.961 5.5819 1.7485 11.352 1.96 17.719 1.8165 6.2206-0.0604 12.498-0.37765 18.68-1.5673 6.161-1.1481 12.322-3.1383 17.57-6.9262 0.6686-0.44941 1.2447-1.0272 1.8775-1.5371l0.4687-0.39276c-0.099 0.15484 0.2447-0.24925 0.3462-0.34367l0.9492-1.0272 3.8089-4.0938c1.3551-1.3256 2.37-2.8362 3.4685-4.309l3.3013-4.4299c8.5818-12.568 15.194-27.829 20.334-43.921 1.2119-4.0787 2.4237-8.1649 3.6416-12.266 1.0179-4.1958 2.0417-8.399 3.0656-12.614 1.8267-8.5124 3.6207-17.096 4.9102-25.869 2.7432-17.489 4.57-35.345 5.6386-53.351 0.9164-17.999 1.197-36.183 0.9731-54.209-0.3284-18.263-1.3761-36.126-3.0417-54.039-1.5939-17.859-3.7968-35.564-6.8714-52.83-3.0864-17.259-6.8176-34.178-11.725-50.221-4.8983-16.005-10.913-31.259-18.665-44.231l-3.0805-4.6074-1.5372-2.2886-0.3821-0.57403-0.191-0.28702c0.2626 0.33611-0.057-0.0642-0.057-0.0604l-0.9045-1.099-1.7939-2.1564-1.606-1.5522c-0.9939-1.0839-2.373-2.0205-3.5491-3.0024-5.0654-3.5802-10.847-5.5817-16.889-6.4352-6.0296-0.95169-12.283-0.82706-18.584-0.77419l-4.77 0.0264-2.167 0.0113-2.3492 0.11707-2.3402 0.12085-2.0148 0.36255c-1.3313 0.21526-2.6686 0.42297-4.0656 0.89882-5.5281 1.5257-10.826 4.1504-15.716 7.6437-4.8805 3.5235-9.3579 7.7948-13.549 12.372-8.2832 9.3545-15.116 20.227-20.871 31.364-11.522 22.342-19.011 45.519-24.172 66.482-2.6148 10.499-4.5849 20.526-6.1908 29.857-1.6626 9.3243-2.773 18.003-3.5998 25.869-1.7283 15.729-2.1999 28.226-2.4835 36.731-0.1552 8.5124-0.2328 13.048-0.2328 13.048" fill="#fff"/>
  <path d="m1676 641.71c0 171.3 59.036 310.18 131.86 310.18 18.205 0 47.491-1.1292 63.266-16.825 47.33-47.082 68.594-164.87 68.594-293.35 0-114.67-20.486-233.69-59.822-287.37-19.426-26.511-47.965-22.803-72.039-22.803-72.824 0-131.86 138.87-131.86 310.17"/>
  <path d="m1675.5 641.72s0.057-6.118 0.1582-17.584c0.2806-11.458 0.8447-28.275 2.573-49.59 1.9283-21.262 4.567-47.173 10.552-76.181 5.9549-28.921 14.459-61.452 29.539-93.602 3.7073-8.0629 8.0235-15.926 12.671-23.721 4.8357-7.6173 10.026-15.17 15.958-22.123 5.946-6.9224 12.534-13.32 19.832-18.724 7.3071-5.3665 15.405-9.5584 23.996-12.059 2.0984-0.73643 4.361-1.1632 6.6415-1.5484l3.4059-0.60047 3.1461-0.20771 3.1551-0.20393 1.0089-0.0453 0.7821-8e-3 1.5701-0.0227c2.1074-0.0415 4.2177-0.0831 6.3371-0.12463 8.5399-0.10196 17.369-0.2568 26.444 1.167 9.0354 1.3029 18.387 4.3997 26.886 10.453 1.0477 0.77042 2.0566 1.6504 3.0864 2.4736 1.0298 0.80818 2.0477 1.6768 3.0387 2.738l2.973 3.059 2.4208 2.9948 1.2 1.4955 0.4627 0.59669 0.2805 0.42675 0.5582 0.8535 2.2447 3.4253c1.4865 2.2961 3.0208 4.5621 4.4685 6.8998 11.116 19.155 19.274 40.798 25.865 63.197 6.546 22.455 11.537 45.798 15.337 69.575 3.7611 23.796 6.3043 48.026 8.0087 72.408 1.576 24.34 2.2775 49.095 2.0089 73.461-0.3075 24.6-1.3194 49.035-3.1522 73.352-1.77 24.31-4.4923 48.415-8.316 72.057-3.8208 23.63-8.6116 46.882-15.265 69.084-6.7281 22.1-14.901 43.521-26.465 61.849l-4.5999 6.6883c-1.5402 2.2168-3.0327 4.547-4.7371 6.3408l-4.9431 5.7592-1.2328 1.4275c-0.2746 0.29834-0.2596 0.35499-0.7671 0.84217l-0.7253 0.67222c-0.9761 0.86483-1.9134 1.843-2.9313 2.6058-3.9968 3.2932-8.328 5.5326-12.656 7.4323-4.3401 1.8958-8.7489 3.229-13.149 4.2675-8.7997 2.1111-17.575 3.0288-26.193 3.4555-8.4564 0.43053-17.492 0.39277-26.035-2.0544-8.54-2.3339-16.59-6.4843-23.889-11.741-7.2863-5.3212-13.88-11.632-19.829-18.509-5.937-6.896-11.143-14.4-15.999-21.976-4.6655-7.757-8.9907-15.593-12.719-23.63-15.134-32.067-23.665-64.583-29.635-93.485-5.9938-29-8.6384-54.907-10.576-76.162-1.7372-21.311-2.3223-38.124-2.6148-49.59-0.1164-11.454-0.1791-17.569-0.1791-17.569m0.8985-8e-3s0.092 6.1029 0.2716 17.553c0.3522 11.42 0.9552 28.211 3.182 49.378 1.0805 10.578 2.5133 22.263 4.6655 34.824 2.0835 12.572 4.6505 26.088 8.0832 40.254 6.7699 28.294 16.576 59.643 31.945 90.056 7.6654 15.167 16.82 30.02 28.032 42.913 5.6744 6.3106 11.767 12.232 18.444 17.153 6.6833 4.8944 13.994 8.5614 21.641 10.846 7.6505 2.3603 15.59 2.6096 24.127 2.383 8.3967-0.13218 16.88-0.63068 25.259-2.3037 8.349-1.6239 16.725-4.377 23.924-9.6566 0.9134-0.62691 1.7133-1.4351 2.5849-2.1451l0.6418-0.54382c-0.039 0.10197 0.3522-0.3701 0.5104-0.52494l1.2656-1.3822 5.0954-5.5402c1.8029-1.7825 3.1819-3.8559 4.6684-5.865l4.4596-6.0614c11.531-17.1 20.31-37.732 27.19-59.424 1.6149-5.4949 3.2327-11.005 4.8566-16.534 1.3641-5.6422 2.7342-11.299 4.1073-16.972 2.4446-11.458 4.8535-23.011 6.5669-34.805 3.6177-23.535 6.134-47.532 7.7071-71.724 1.3253-24.2 1.788-48.631 1.5791-72.903-0.3373-24.51-1.6418-48.616-3.782-72.721-2.0745-24.049-4.9789-47.894-9.0563-71.184-4.0894-23.271-9.1012-46.089-15.686-67.77-6.5818-21.636-14.677-42.297-25.193-59.975-1.3641-2.1413-2.7999-4.1958-4.1849-6.2917l-2.0895-3.127-0.5224-0.78174-0.2626-0.39276c0.2447 0.30212-0.1075-0.12841-0.1284-0.15484l-1.2149-1.4804c-0.8029-0.9668-1.6208-2.0091-2.4118-2.9117l-2.2775-2.2282c-0.7105-0.78174-1.5433-1.4842-2.4149-2.1602-0.8537-0.67601-1.6775-1.4124-2.5491-2.0469-7.0535-4.9926-15.05-7.7382-23.307-8.9051-8.2384-1.3029-16.707-1.1368-25.181-1.0612-2.1402 0.0151-4.2714 0.0302-6.3967 0.0491l-2.976 0.0189-3.1581 0.16995-3.1432 0.16617-2.8088 0.50605c-1.8626 0.30213-3.7282 0.60048-5.6356 1.2538-7.5967 2.1186-14.859 5.7404-21.534 10.533-6.6654 4.8302-12.767 10.665-18.441 16.93-11.229 12.776-20.429 27.554-28.124 42.675-15.423 30.329-25.256 61.667-32.04 89.942-3.4387 14.158-6.0087 27.671-8.0952 40.243-2.1552 12.557-3.5909 24.238-4.6774 34.812-2.2388 21.164-2.8596 37.951-3.2298 49.378-0.188 11.439-0.2865 17.538-0.2865 17.538" fill="#e6e6e6"/>
  <path d="m1630.3 641.63c0 171.3 59.036 310.18 131.86 310.18 18.205 0 47.491-1.1292 63.266-16.825 47.33-47.082 68.594-164.87 68.594-293.35 0-114.67-20.486-233.69-59.822-287.37-19.426-26.511-47.965-22.803-72.039-22.803-72.824 0-131.86 138.87-131.86 310.17"/>
  <path d="m1629.9 641.63s0.057-6.118 0.1582-17.584c0.2806-11.458 0.8447-28.275 2.573-49.59 1.9283-21.262 4.567-47.173 10.552-76.181 5.9549-28.921 14.459-61.452 29.539-93.602 3.7073-8.0629 8.0235-15.926 12.671-23.721 4.8357-7.6173 10.026-15.17 15.958-22.123 5.946-6.9224 12.534-13.32 19.832-18.724 7.3071-5.3665 15.405-9.5584 23.996-12.059 2.0984-0.73643 4.361-1.1632 6.6415-1.5484l3.4059-0.60047 3.1461-0.20771 3.1551-0.20393 1.0089-0.0453 0.7821-8e-3 1.5701-0.0227c2.1074-0.0415 4.2177-0.0831 6.3371-0.12463 8.5399-0.10196 17.369-0.2568 26.444 1.167 9.0354 1.3029 18.387 4.3997 26.886 10.453 1.0477 0.77042 2.0566 1.6504 3.0864 2.4736 1.0298 0.80818 2.0477 1.6768 3.0387 2.738l2.973 3.059 2.4208 2.9948 1.2 1.4955 0.4627 0.59669 0.2805 0.42675 0.5582 0.8535 2.2447 3.4253c1.4865 2.2961 3.0208 4.5621 4.4685 6.8998 11.116 19.155 19.274 40.798 25.865 63.197 6.546 22.455 11.537 45.798 15.337 69.575 3.7611 23.796 6.3043 48.026 8.0087 72.408 1.576 24.34 2.2775 49.095 2.0089 73.461-0.3075 24.6-1.3194 49.035-3.1522 73.352-1.77 24.31-4.4923 48.415-8.316 72.057-3.8208 23.63-8.6116 46.882-15.265 69.084-6.7281 22.1-14.901 43.521-26.465 61.849l-4.5999 6.6883c-1.5402 2.2168-3.0327 4.547-4.7371 6.3408l-4.9431 5.7592-1.2328 1.4275c-0.2746 0.29834-0.2596 0.35499-0.7671 0.84217l-0.7253 0.67222c-0.9761 0.86483-1.9134 1.843-2.9313 2.6058-3.9968 3.2932-8.328 5.5326-12.656 7.4323-4.3401 1.8958-8.7489 3.229-13.149 4.2675-8.7997 2.1111-17.575 3.0288-26.193 3.4555-8.4564 0.43053-17.492 0.39277-26.035-2.0544-8.54-2.3339-16.59-6.4843-23.889-11.741-7.2863-5.3212-13.88-11.632-19.829-18.509-5.937-6.896-11.143-14.4-15.999-21.976-4.6655-7.757-8.9907-15.593-12.719-23.63-15.134-32.067-23.665-64.583-29.635-93.485-5.9938-29-8.6384-54.907-10.576-76.162-1.7372-21.311-2.3223-38.124-2.6148-49.59-0.1164-11.454-0.1791-17.569-0.1791-17.569m0.8985-8e-3s0.092 6.1029 0.2716 17.553c0.3522 11.42 0.9552 28.211 3.182 49.378 1.0805 10.578 2.5133 22.263 4.6655 34.824 2.0835 12.572 4.6505 26.088 8.0832 40.254 6.7699 28.294 16.576 59.643 31.945 90.056 7.6654 15.167 16.82 30.02 28.032 42.913 5.6744 6.3106 11.767 12.232 18.444 17.153 6.6833 4.8944 13.994 8.5614 21.641 10.846 7.6505 2.3603 15.59 2.6096 24.127 2.383 8.3967-0.13218 16.88-0.63068 25.259-2.3037 8.349-1.6239 16.725-4.377 23.924-9.6566 0.9134-0.62691 1.7133-1.4351 2.5849-2.1451l0.6418-0.54382c-0.039 0.10197 0.3522-0.3701 0.5104-0.52494l1.2656-1.3822 5.0954-5.5402c1.8029-1.7825 3.1819-3.8559 4.6684-5.865l4.4596-6.0614c11.531-17.1 20.31-37.732 27.19-59.424 1.6149-5.4949 3.2327-11.005 4.8566-16.534 1.3641-5.6422 2.7342-11.299 4.1073-16.972 2.4446-11.458 4.8535-23.011 6.5669-34.805 3.6177-23.535 6.134-47.532 7.7071-71.724 1.3253-24.2 1.788-48.631 1.5791-72.903-0.3373-24.51-1.6418-48.616-3.782-72.721-2.0745-24.049-4.9789-47.894-9.0563-71.184-4.0894-23.271-9.1012-46.089-15.686-67.77-6.5818-21.636-14.677-42.297-25.193-59.975-1.3641-2.1413-2.7999-4.1958-4.1849-6.2917l-2.0895-3.127-0.5224-0.78174-0.2626-0.39276c0.2447 0.30212-0.1075-0.12841-0.1284-0.15484l-1.2149-1.4804c-0.8029-0.9668-1.6208-2.0091-2.4118-2.9117l-2.2775-2.2282c-0.7105-0.78174-1.5433-1.4842-2.4149-2.1602-0.8537-0.67601-1.6775-1.4124-2.5491-2.0469-7.0535-4.9926-15.05-7.7382-23.307-8.9051-8.2384-1.3029-16.707-1.1368-25.181-1.0612-2.1402 0.0151-4.2714 0.0302-6.3967 0.0491l-2.976 0.0189-3.1581 0.16995-3.1432 0.16617-2.8088 0.50605c-1.8626 0.30213-3.7282 0.60048-5.6356 1.2538-7.5967 2.1186-14.859 5.7404-21.534 10.533-6.6654 4.8302-12.767 10.665-18.441 16.93-11.229 12.776-20.429 27.554-28.124 42.675-15.423 30.329-25.256 61.667-32.04 89.942-3.4387 14.158-6.0087 27.671-8.0952 40.243-2.1552 12.557-3.5909 24.238-4.6774 34.812-2.2388 21.164-2.8596 37.951-3.2298 49.378-0.188 11.439-0.2865 17.538-0.2865 17.538" fill="#e6e6e6"/>
  <path d="m1634.3 641.63c0 171.3 49.446 310.18 110.44 310.18s104.47-138.87 104.47-310.18-43.476-310.17-104.47-310.17-110.44 138.87-110.44 310.17"/>
  <path d="m1633.9 641.63s0.033-5.7026 0.089-16.394c0.2359-10.684 0.5761-26.357 1.7642-46.274 1.3163-19.891 3.2446-44.072 7.3698-71.494 4.2894-27.331 10.197-58.204 21.214-90.022 5.5669-15.835 12.271-32.018 21.375-47.154 4.4386-7.6551 9.6503-14.88 15.537-21.504 5.8923-6.5976 12.585-12.561 20.211-16.843 1.9462-0.94791 3.8476-2.0771 5.8684-2.8588 2.0597-0.69488 4.0029-1.5975 6.1908-2.0998l3.3014-0.71754c1.1134-0.23793 2.2417-0.49096 3.176-0.50606l2.9581-0.23037 1.4805-0.1133c0.6567-0.0378 0.4179 4e-3 0.6687 4e-3l0.4059 0.0227 0.8119 0.0491c8.7012 0.26436 17.396 3.3762 25.133 8.5275 15.578 10.446 27.318 27.625 36.518 46.127 4.5879 9.3356 8.6474 19.102 12.301 29.151 3.5402 10.102 6.8177 20.42 9.6325 30.983 5.6893 21.096 10.026 42.958 13.37 65.176 3.2506 22.248 5.4953 44.862 6.9281 67.623 1.3253 22.724 1.7999 45.745 1.5133 68.548-0.2716 22.871-1.3253 45.715-3.1909 68.356-1.7193 22.656-4.2446 45.134-7.7609 67.181-3.5401 22.048-7.8623 43.725-13.417 64.681-2.7492 10.491-5.9819 20.703-9.3698 30.764-3.5223 9.9965-7.4445 19.706-11.883 28.981-4.4357 9.279-9.5459 18.007-15.352 25.907-5.8176 7.8741-12.447 14.887-19.975 20.065-0.9462 0.63446-1.8656 1.3256-2.8327 1.9109l-2.9581 1.5937c-1.9432 1.1556-4.0028 1.9223-6.0595 2.6889-1.9999 0.90259-4.2326 1.3029-6.4027 1.8203-2.2686 0.63069-4.0924 0.56649-6.1192 0.80063-8.731 0.44186-17.041-1.8165-24.641-5.933-7.5907-4.0938-14.247-10.012-20.145-16.504-5.8894-6.5334-11.128-13.686-15.578-21.296-9.143-15.034-15.898-31.153-21.495-46.958-11.089-31.746-17.02-62.611-21.33-89.923-4.1342-27.418-6.0595-51.599-7.3908-71.483-1.1969-19.91-1.5581-35.583-1.8088-46.274-0.069-10.68-0.1075-16.379-0.1075-16.379m0.8985-8e-3s0.069 5.695 0.2 16.368c0.3104 10.65 0.6895 26.311 2.382 46.112 1.5551 19.808 4.6684 43.706 9.6175 70.629 5.149 26.832 12.429 56.788 23.99 87.182 1.4686 3.7766 2.9073 7.6248 4.564 11.364 0.8089 1.8807 1.6178 3.7728 2.4357 5.6762 0.8627 1.8618 1.7313 3.7312 2.6059 5.6082 1.6656 3.8219 3.6625 7.4096 5.5162 11.163 2.0506 3.5688 3.955 7.3416 6.2176 10.774 8.6564 14.037 19.307 27.255 32.569 34.846 6.546 3.7766 13.934 5.8612 21.086 5.6799 1.9223-0.18883 4.1223-0.0453 5.764-0.52495 1.7581-0.38143 3.5222-0.55892 5.346-1.2991 1.8149-0.58914 3.6417-1.1707 5.3879-2.1338l2.6685-1.284c0.8716-0.4834 1.7134-1.0763 2.5761-1.6088 13.817-8.788 25.151-24.434 34.306-41.856 4.561-8.7994 8.6683-18.116 12.408-27.773 3.6596-9.7095 6.9759-19.736 9.8832-30.035 2.9253-10.287 5.552-20.797 7.7669-31.512 2.3103-10.676 4.2595-21.541 5.9579-32.512 3.3133-21.957 5.6327-44.337 7.152-66.879 1.3582-22.565 1.8626-45.285 1.6149-67.978-0.3105-22.765-1.394-45.311-3.2865-67.789-1.8089-22.444-4.4117-44.68-7.9907-66.448-3.6417-21.738-8.0086-43.106-13.773-63.518-2.8447-10.227-6.1132-20.152-9.6175-29.823-3.6088-9.6-7.5818-18.856-11.994-27.595-8.8862-17.285-19.781-32.848-33.112-41.704-6.6326-4.3997-13.802-6.8847-20.984-7.1415l-0.6717-0.0566-0.3373-0.0264c0.01-8e-3 -0.4805-0.0227-0.075-0.0264l-1.4835 0.0944-2.9581 0.18883c-1.0477 0.0113-1.8537 0.23037-2.6835 0.4192l-2.5044 0.52116c-1.6715 0.34367-3.4267 1.1443-5.1341 1.6768-1.7104 0.62691-3.3401 1.6013-5.0117 2.3679-6.5669 3.5802-12.561 8.7616-17.954 14.683-5.3879 5.9405-10.262 12.568-14.594 19.615-2.2715 3.4102-4.1879 7.1603-6.2445 10.707-1.8656 3.735-3.8745 7.3001-5.555 11.103-0.8776 1.8732-1.7522 3.735-2.6238 5.5893-0.8209 1.8958-1.6328 3.7841-2.4477 5.661-1.6656 3.7275-3.1133 7.5607-4.5938 11.326-11.626 30.326-18.934 60.274-24.104 87.091-4.9551 26.915-8.0714 50.814-9.6414 70.614-1.6985 19.793-2.1015 35.454-2.4208 46.112-0.1463 10.665-0.2209 16.352-0.2209 16.352" fill="#e6e6e6"/>
  <path d="m1695.1 641.63c0 77.087 22.25 139.58 49.696 139.58 27.453 0 43.733-62.491 43.733-139.58s-16.28-139.58-43.733-139.58c-27.447 0-49.696 62.491-49.696 139.58"/>
  <path d="m1694.6 641.63s-0.1761-10.216 0.6089-28.109c0.4627-8.9429 1.1671-19.808 2.6686-32.24 1.6238-12.391 3.8804-26.459 8.5967-41.134 2.367-7.3227 5.355-14.778 9.4354-21.927 4.0924-7.0659 9.322-14.049 16.638-18.55 1.8327-1.0839 3.7759-1.9827 5.8117-2.6436 1.0626-0.32101 2.2417-0.54383 3.37-0.77042l2.6924-0.25303c-0.012 0 0.6328-0.0189 0.4627-8e-3l0.2 8e-3 0.4059 0.0227 0.806 0.0566 1.6238 0.13973c1.0716 0.2417 2.1581 0.42298 3.2148 0.74776 2.1163 0.69866 4.1849 1.6504 6.1012 2.9117 7.746 5.121 13.134 13.58 17.095 22.384 3.9968 8.8787 6.8504 18.38 9.128 28.101 2.2476 9.7284 3.9401 19.702 5.1401 29.808 1.1522 10.114 1.8984 20.34 2.3193 30.601 0.3253 10.238 0.3074 20.639 0.01 30.851-0.2626 10.272-0.8208 20.526-1.6865 30.688-0.788 10.166-1.8387 20.261-3.1819 30.22-1.3642 9.9512-3.0775 19.751-5.1939 29.34-2.2058 9.5396-4.7371 18.947-8.4534 27.682-3.6953 8.6483-8.6205 16.968-15.847 22.138-1.7969 1.2765-3.7342 2.2584-5.7311 3.0099-1.0328 0.355-2.1671 0.59292-3.2506 0.86105l-1.3492 0.16995-0.6687 0.0831-0.3313 0.0302-0.1671 0.0151-0.3851 0.0189c-4.1371 0.0906-8.2206-1.1292-11.823-3.1534-3.6297-2.0091-6.7341-4.9057-9.4653-7.9912-2.7223-3.1194-5.1491-6.4579-7.1609-10.015-4.1163-7.0433-7.1609-14.442-9.5608-21.73-4.7819-14.604-7.0654-28.668-8.7101-41.04-1.5134-12.429-2.2119-23.294-2.6925-32.229-0.8029-17.89-0.6656-28.094-0.6686-28.094m0.8985-8e-3s0.039 2.5454 0.1164 7.3227c0.1552 4.7584 0.3224 11.768 1.2178 20.597 0.797 8.8334 2.3462 19.495 4.8834 31.394 2.5552 11.873 6.1371 25.054 11.418 38.309 2.6775 6.5788 5.6774 13.275 9.4325 19.389 3.7759 6.0236 8.1847 11.817 13.599 15.087 5.3043 3.3649 11.659 3.9238 17.411 0.5476 5.7848-3.3536 10.752-10.106 14.686-17.818 7.9967-15.601 12.423-34.941 15.104-54.499 1.3015-9.8455 2.1044-19.872 2.5432-29.959 0.3552-10.095 0.3731-20.242 0.1164-30.367-0.3074-10.182-0.8984-20.186-1.7939-30.205-0.8-9.9928-1.9164-19.891-3.4059-29.57-2.9879-19.257-7.137-38.256-14.483-53.616-3.6655-7.5569-8.1728-14.173-13.444-17.576-1.3074-0.8535-2.6626-1.4502-4.0267-1.9109-0.6866-0.20393-1.385-0.30212-2.0716-0.47962l-1.0477-0.0718-0.5254-0.0378-0.2626-0.0302-0.1314-0.0113c-0.2865 4e-3 0.2448-0.0227 0.1254-0.0151-0.8656 0.0566-1.8178 0.0831-2.6059 0.16617l-1.8268 0.40409c-1.373 0.40787-2.7252 0.98568-4.0476 1.707-5.3251 2.9797-9.7817 8.6294-13.588 14.547-3.7939 6.016-6.8475 12.648-9.5608 19.192-5.3461 13.192-8.9519 26.36-11.534 38.219-2.5432 11.892-4.0923 22.55-4.9013 31.379-0.9014 8.8258-1.0954 15.831-1.2626 20.597-0.09 4.766-0.1343 7.3076-0.1343 7.3076" fill="#e6e6e6"/>
  <path d="m1748.5 649.71c0 5.9141-3.7909 10.707-8.4594 10.707 0 0-407.31-37.766-738.64-37.766-292.53 0-734.79 37.766-734.79 37.766-4.6744 0-8.4624-4.7924-8.4624-10.707v-16.352c0-5.9141 3.7879-10.707 8.4624-10.707 0 0 451.22-37.766 734.79-37.766 319.39 0 738.64 37.766 738.64 37.766 4.6685 0 8.4594 4.7924 8.4594 10.707v16.352z"/>
  <path d="m1748.1 649.71-0.021-8.282c-0.018-2.7607 0-5.5402-0.042-8.2782-0.063-0.64201-0.09-1.2954-0.1761-1.9298l-0.4716-1.8543-0.7492-1.6957c-0.3373-0.49473-0.6478-1.0121-0.994-1.4842-0.406-0.40031-0.7851-0.83839-1.203-1.216-0.4537-0.29457-0.8925-0.63446-1.3581-0.89882-0.4925-0.1775-0.9761-0.39276-1.4686-0.55137l-1.5283-0.18505h-0.036c-31.07-2.5378-62.147-5.0379-93.235-7.2321l-46.628-3.3385-46.652-2.7946c-62.198-3.8521-124.42-6.7298-186.65-9.5698l-93.343-3.6784-23.333-0.95169-23.33-0.61936-46.661-1.2425-46.652-1.4049c-15.549-0.5476-31.133-0.47207-46.697-0.74398-31.109-0.27569-62.32-0.96302-93.354-0.89882l-93.328 1.4502c-15.552 0.0717-31.106 1.0159-46.661 1.4351l-46.667 1.4993c-15.555 0.5476-31.115 0.90259-46.667 1.6012l-46.658 2.1602c-31.106 1.5333-62.221 2.6511-93.316 4.5621l-93.301 5.1663-93.289 5.6459-93.271 6.1482-46.622 3.3158-23.316 1.7183-2.9133 0.21904-0.88057 0.0642-0.50744 0.0718c-0.34028 0.0491-0.69251 0.0264-1.0089 0.21148-1.3104 0.41165-2.5492 1.4162-3.3282 2.8702-0.37013 0.72132-0.7134 1.5484-0.8328 2.1375-0.2179 0.40031-0.32238 2.5681-0.30745 3.0175l-0.0328 7.3907-0.0328 7.3832c-0.0209 0.68734 0.0269 1.1292 0.0657 1.5446 0.0239 0.44186 0.0358 0.88749 0.17909 1.3029 0.14925 0.86483 0.49849 1.6428 0.86564 2.3981 0.70744 1.4729 2.1939 2.5983 3.2238 2.957 0.16716 0.18128 0.76415 0.21149 1.2268 0.27947l0.72535 0.0982c-0.53133-0.0227 0.27163-0.0378 0.34028-0.0566l2.9163-0.22282 23.318-1.741 46.64-3.3574 93.283-6.4201 186.61-11.858c31.094-2.0847 62.224-3.3574 93.334-5.1739l46.664-2.704 46.7-2.0846 46.706-2.0318c15.57-0.6118 31.142-1.5257 46.706-1.7259l93.402-2.0544c31.22-0.10952 62.326 0.51361 93.495 0.73265 15.576 0.20771 31.157 0.20771 46.732 0.58536l46.706 1.6768 46.706 1.7901c15.567 0.60424 31.136 1.1216 46.694 2.0582 31.121 1.5899 62.233 3.4858 93.346 5.3627 31.109 1.9072 62.195 4.3921 93.289 6.5485 31.097 2.096 62.174 4.7056 93.25 7.2245 62.156 5.0266 124.31 9.9323 186.42 15.744h-0.036l1.5581-0.19261c0.5015-0.17372 0.997-0.38521 1.4985-0.56648 0.4656-0.29457 0.9164-0.62691 1.382-0.92903l1.2119-1.25 0.997-1.5333c0.2447-0.58159 0.5104-1.1556 0.7432-1.7448 0.1433-0.61558 0.3105-1.2123 0.4508-1.843l0.1731-2.0884v0.0566zm0.8955 0.0604-0.1642 2.0847c-0.1433 0.72132-0.3313 1.4502-0.5074 2.1715-0.2537 0.66467-0.5433 1.3029-0.8179 1.9525l-1.1015 1.7183-1.3521 1.4086c-0.5135 0.35122-1.0179 0.7251-1.5433 1.0499-0.5581 0.21904-1.1104 0.46074-1.6775 0.64957l-1.7432 0.22659h-0.037c-31.067-2.6209-62.138-5.1965-93.223-7.4436l-46.622-3.4593c-15.543-1.1481-31.1-1.9109-46.649-2.8815-31.103-1.8505-62.2-3.7879-93.316-5.2154-31.109-1.4766-62.212-3.2441-93.328-4.4563-31.121-1.1518-62.239-2.2924-93.346-3.7275-15.552-0.78174-31.112-1.1405-46.67-1.5824l-46.676-1.3218-46.673-1.4389c-15.558-0.45696-31.118-0.53627-46.676-0.82706-31.1-0.38899-62.266-1.1783-93.319-1.2349l-93.411 0.57404c-15.576-0.0642-31.121 0.58914-46.679 0.93658l-46.673 1.2236-46.676 1.2689-46.676 1.8883-46.67 2.096c-15.558 0.68355-31.115 1.4162-46.664 2.3528l-93.307 5.3476-93.265 6.541c-31.085 2.2168-62.156 4.7056-93.226 7.251l-46.592 4.0145-23.292 2.0658-2.9103 0.26058c-0.41491 0.0189-0.0985 0.0566-1.1134 0.0566l-0.72833-0.0906c-0.49849-0.0755-0.8925-0.0491-1.6387-0.33989-2.7193-0.8686-4.6864-2.6549-6.1789-5.2645-0.68654-1.3029-1.2865-2.7078-1.594-4.2411-0.22089-0.74775-0.28656-1.5295-0.34625-2.3188-0.0716-0.8044-0.1194-1.5862-0.10448-2.1375l-0.0298-7.3832-0.0358-7.3907c9e-3 -0.44185-0.0239-0.30212 0.0209-1.2312l0.0687-0.92148c0.0448-0.60047 0.0567-1.167 0.28954-2.1262 0.3373-1.8127 0.93728-3.1761 1.6178-4.5054 1.4178-2.6436 3.6327-4.5508 6.0654-5.374 0.59699-0.28324 1.2298-0.32856 1.8566-0.41919l1.5194-0.16617 2.9133-0.26058 23.298-2.0242 46.616-3.9352 93.247-7.3832 93.271-6.8733 93.316-5.9443c31.103-2.096 62.236-3.4064 93.355-5.1323l46.682-2.4434c15.561-0.7893 31.136-1.2463 46.706-1.8845 31.142-1.1103 62.269-2.6322 93.429-3.1572l93.486-1.2349c31.241 0.0113 62.299 0.7742 93.459 1.1179 15.572 0.30213 31.13 0.26814 46.709 0.84973l46.726 1.7485c62.311 2.2546 124.54 5.6648 186.76 9.5887 62.198 4.3732 124.39 8.6974 186.54 13.868 62.15 5.1361 124.31 9.9437 186.43 15.658h-0.039l1.7313 0.23037c0.5611 0.1775 1.1133 0.42298 1.6656 0.64202 0.5253 0.30212 1.0238 0.68355 1.5342 1.0272 0.4687 0.42675 0.9015 0.92148 1.3462 1.3822 0.3941 0.54004 0.7433 1.1216 1.1134 1.6881 0.3015 0.62313 0.5582 1.2802 0.8358 1.9223 0.197 0.68356 0.3493 1.3936 0.5224 2.0922 0.095 0.71754 0.1254 1.454 0.188 2.1753 0.018 5.5478-0.021 11.058-0.027 16.583v0.0604z" fill="#f2f2f2"/>
 </g>
</svg>
