<?xml version='1.0' encoding='utf-8'?>
<svg xmlns="http://www.w3.org/2000/svg" version="1.1" width="600px" height="976px" viewBox="0 0 600 976"> <g id="layer1"> <g> <g style="fill:rgb(0,0,0); fill-opacity:1.0; stroke-linejoin: miter"> <path d="M252.55554,455.70987C252.48502,455.71127,252.42691,455.7127,252.42662,455.71298C252.42635,455.71326,252.42719,455.7629,252.4286,455.82327C252.43001,455.88364,252.43057,455.93356,252.42973,455.93442C252.42888,455.93527,252.36908,455.93695,252.29659,455.93835C252.22408,455.9398,252.16428,455.9412,252.16371,455.94205C252.16315,455.9426,252.164,455.99478,252.1657,456.05798C252.16739,456.12115,252.16852,456.17307,252.16823,456.17334C252.16795,456.1736,252.02916,456.177,252.00856,456.1773C252.00546,456.1773,252.00519,456.19,252.00687,456.25204L252.00912,456.3268L251.88585,456.3268L251.76286,456.3268L251.76286,456.36346L251.76286,456.39987L251.88614,456.40015C251.95384,456.40015,252.00969,456.40042,252.00998,456.401C252.01025,456.40128,252.01337,456.49408,252.01393,456.5254C252.01393,456.5268,252.04974,456.52737,252.0946,456.5268L252.17557,456.52567L252.1764,456.5708C252.17697,456.59564,252.1781,456.63486,252.17896,456.65826C252.1795,456.6814,252.18036,456.71356,252.18036,456.7296C252.18036,456.75613,252.18092,456.7587,252.18544,456.75726C252.18797,456.7567,252.24101,456.755,252.30307,456.75418C252.36513,456.75305,252.42296,456.75192,252.4317,456.75165L252.44778,456.75107L252.44948,456.8089C252.45032,456.84076,252.45145,456.891,252.45174,456.92032L252.45258,456.97363L252.55554,456.97165C252.61224,456.97083,252.67204,456.96912,252.6884,456.968L252.71858,456.9663L252.71745,456.9336C252.71436,456.83768,252.71408,456.80917,252.71605,456.80804C252.71718,456.8072,252.7468,456.80637,252.7815,456.80606C252.8162,456.8058,252.85004,456.80493,252.85681,456.80438L252.86865,456.80298L252.86865,456.7587C252.86865,456.73444,252.86752,456.67407,252.86612,456.62442C252.86443,456.57477,252.86246,456.49945,252.8616,456.45712L252.85963,456.3804L252.94821,456.3804C252.99673,456.3804,253.04497,456.38126,253.05568,456.3824L253.07458,456.38406L253.07289,456.40128C253.07149,456.4151,253.07233,456.4216,253.07712,456.43344C253.08249,456.4467,253.08276,456.45065,253.08023,456.46643C253.07289,456.51157,253.03905,456.6106,252.99927,456.702C252.93382,456.85233,252.93353,456.8529,252.91548,456.98972C252.89828,457.11948,252.89603,457.1432,252.89603,457.19565C252.89603,457.26532,252.90533,457.3175,252.92677,457.36856C252.9341,457.38632,252.98178,457.48816,253.01675,457.56094C253.02719,457.58267,253.04836,457.6278,253.06386,457.6611C253.13156,457.8061,253.15894,457.8532,253.21844,457.92627C253.32762,458.06082,253.39447,458.1463,253.41676,458.18015C253.4286,458.19818,253.43764,458.22723,253.45822,458.31412C253.498,458.48227,253.52113,458.56012,253.57811,458.7147C253.63538,458.87042,253.64497,458.90793,253.65456,459.0168C253.66133,459.09384,253.65936,459.12656,253.64581,459.16605C253.6368,459.19284,253.63538,459.20047,253.63538,459.22104C253.63594,459.25095,253.62776,459.30963,253.6131,459.38324C253.59955,459.4518,253.5973,459.45856,253.57953,459.48904C253.5595,459.52316,253.5516,459.54968,253.5344,459.63995C253.52592,459.6848,253.52197,459.69498,253.50562,459.7136C253.45146,459.77536,253.42833,459.8546,253.38629,460.1181C253.36232,460.2693,253.35893,460.28677,253.31746,460.47128C253.28671,460.60724,253.2664,460.72205,253.2664,460.75986C253.2664,460.7985,253.27571,460.81146,253.30815,460.8177C253.31633,460.8191,253.33015,460.82333,253.3389,460.82672C253.36485,460.83716,253.36372,460.8298,253.36372,460.9799C253.36372,461.1593,253.36006,461.18524,253.31352,461.32123C253.25569,461.49103,253.25935,461.46875,253.25964,461.66254C253.25964,461.74634,253.26076,461.82306,253.26161,461.83322C253.26527,461.8724,253.26979,462.1119,253.2681,462.18018C253.26613,462.25098,253.26613,462.2521,253.25935,462.25916C253.25061,462.2682,253.24835,462.2747,253.2427,462.30795L253.23764,462.33533L253.22748,462.33533C253.21338,462.33533,253.20096,462.3435,253.18855,462.36072C253.1829,462.36832,253.17755,462.37482,253.1767,462.37482C253.17557,462.37482,253.16965,462.37143,253.16344,462.36777C253.14116,462.35394,253.11662,462.36127,253.10336,462.38525C253.09462,462.40106,253.08615,462.47046,253.08586,462.52744L253.08586,462.54352L253.02832,462.60248C252.99673,462.63492,252.96852,462.66592,252.9657,462.6713C252.96118,462.67947,252.96034,462.6871,252.96034,462.7252L252.96034,462.76947L252.97304,462.78244L252.98544,462.79514L253.05766,462.79514C253.09715,462.79514,253.15442,462.79373,253.1846,462.79233C253.24919,462.7892,253.26218,462.7861,253.31154,462.7613C253.35301,462.74042,253.36288,462.7373,253.41591,462.72714C253.48953,462.71304,253.51126,462.70374,253.5341,462.67807C253.5451,462.66565,253.5451,462.66705,253.52847,462.6064C253.5186,462.56973,253.51408,462.54886,253.49886,462.4651C253.49603,462.44846,253.48982,462.43124,253.4791,462.40866C253.45879,462.36465,253.45822,462.37427,253.48474,462.22955C253.52057,462.0332,253.542,461.93985,253.58517,461.7923C253.60661,461.71982,253.6162,461.68228,253.6224,461.65125C253.62381,461.64337,253.62607,461.58075,253.62749,461.51163C253.63058,461.33984,253.63284,461.32883,253.68024,461.238C253.72368,461.15506,253.73495,461.12994,253.75273,461.07693C253.76712,461.0332,253.78264,460.9686,253.78969,460.92233C253.79138,460.91162,253.79561,460.90598,253.8224,460.87747C253.84695,460.85153,253.8557,460.83997,253.86472,460.8219C253.87488,460.80103,253.87854,460.7968,253.90224,460.77734C253.9406,460.74576,253.96373,460.71753,253.99054,460.6696C254.00548,460.64334,254.03848,460.57028,254.05908,460.51868C254.07516,460.47775,254.09123,460.44815,254.1028,460.43686L254.11267,460.42728L254.12254,460.43433C254.13354,460.4425,254.15611,460.46957,254.17249,460.4947C254.19928,460.53558,254.21677,460.58212,254.25964,460.72742C254.27376,460.7748,254.28673,460.81854,254.2887,460.82474L254.29237,460.83603L254.32735,460.84308C254.36853,460.85153,254.3787,460.85492,254.40408,460.8676C254.432,460.88144,254.43031,460.87747,254.45937,460.98694C254.49716,461.1288,254.51099,461.16803,254.55472,461.25775C254.60408,461.35873,254.60548,461.3641,254.60774,461.47015C254.60944,461.55563,254.61395,461.60358,254.62749,461.68228C254.63962,461.75253,254.64949,461.79062,254.67319,461.8541C254.71268,461.96072,254.73131,462.02588,254.75584,462.1421C254.76064,462.16522,254.77306,462.21686,254.7832,462.25635L254.80182,462.32828L254.80211,462.37057C254.80238,462.4098,254.80182,462.4143,254.79477,462.43265C254.77588,462.48315,254.77643,462.48004,254.77164,462.55536C254.7691,462.60022,254.76572,462.63266,254.76318,462.6414C254.74767,462.69162,254.77023,462.7181,254.85204,462.7452C254.88477,462.75592,254.90677,462.76636,254.91466,462.77454C254.91748,462.77737,254.9234,462.78555,254.9282,462.79288C254.93835,462.8087,254.95245,462.8174,254.98293,462.827C255.0021,462.83295,255.01509,462.83463,255.06897,462.83746C255.15726,462.84225,255.2131,462.84055,255.22975,462.83295C255.2478,462.82446,255.2588,462.81207,255.26614,462.7909C255.27179,462.7754,255.27263,462.76862,255.2715,462.74915C255.27066,462.73645,255.26784,462.71954,255.26501,462.7119C255.25824,462.69244,255.24019,462.66537,255.21593,462.63858C255.1883,462.60782,255.18039,462.5957,255.14456,462.5249C255.08955,462.41714,255.0701,462.3875,255.04047,462.36578C255.02946,462.35788,255.01875,462.34775,255.0165,462.34323C255.01424,462.339,255.01057,462.32263,255.00832,462.30713C255.00577,462.2885,255.0024,462.2755,254.99815,462.26877C254.99223,462.25888,254.99223,462.25833,254.99393,462.15817C254.99477,462.10287,254.99646,461.96042,254.99731,461.84167C254.99928,461.60782,254.99788,461.56467,254.98575,461.495C254.97446,461.42786,254.96431,461.3957,254.93187,461.32205C254.90958,461.27158,254.90338,461.2473,254.88843,461.15704C254.88222,461.11838,254.876,461.08002,254.8746,461.07156C254.86473,461.01486,254.865,461.0098,254.87657,460.93982C254.88448,460.89413,254.88956,460.87128,254.89378,460.86365C254.91888,460.8191,254.92313,460.80698,254.92566,460.77454C254.92932,460.72968,254.92453,460.66592,254.90958,460.55957C254.88983,460.41766,254.87912,460.35364,254.85852,460.2569C254.82043,460.07578,254.8179,460.06195,254.81508,460.00385C254.81198,459.94293,254.81169,459.94208,254.7485,459.81485C254.70366,459.7243,254.69943,459.71472,254.69943,459.70117C254.69943,459.69186,254.69576,459.67493,254.68983,459.65604C254.68448,459.6394,254.67743,459.61514,254.6746,459.60187C254.6715,459.58862,254.66275,459.56464,254.65486,459.54828C254.64723,459.53192,254.63934,459.51273,254.63765,459.5054C254.63426,459.4913,254.62495,459.41202,254.62213,459.3748C254.60239,459.11246,254.60013,459.07324,254.59985,458.9968C254.59985,458.8865,254.60521,458.85208,254.64018,458.74573C254.66331,458.67465,254.6681,458.6583,254.68109,458.6072C254.68645,458.5858,254.69406,458.5584,254.69801,458.54684C254.71776,458.48932,254.73836,458.38437,254.75415,458.25885C254.76712,458.15674,254.76768,458.1553,254.85034,458.06448C254.96346,457.94006,255.02214,457.86786,255.07658,457.78662C255.0966,457.7567,255.12312,457.71075,255.1691,457.62723C255.22975,457.51694,255.25543,457.47125,255.28392,457.42358C255.3155,457.37027,255.32088,457.3587,255.3268,457.32513C255.34232,457.23825,255.344,456.99734,255.32962,456.8825C255.32002,456.80692,255.30507,456.74966,255.26924,456.65262C255.2337,456.55615,255.2275,456.52512,255.22665,456.43878L255.22609,456.38858L255.36177,456.3869L255.49774,456.3852L255.49774,456.61002L255.49774,456.83456L255.57532,456.83456L255.6529,456.83456L255.6529,456.91498L255.6529,456.99536L255.78548,456.99536L255.91806,456.99536L255.91806,456.88394L255.91806,456.77252L256.05206,456.77252L256.18604,456.77252L256.18604,456.65543L256.18604,456.5381L256.26645,456.53894C256.3364,456.5398,256.34683,456.5392,256.34683,456.53555C256.3471,456.5333,256.3471,456.50623,256.3471,456.47546L256.3471,456.4199L256.44556,456.4199L256.54428,456.4199L256.54428,456.40494C256.54428,456.39703,256.54514,456.37982,256.54626,456.36716L256.54797,456.34372L256.4481,456.34317L256.34824,456.34232L256.34796,456.26614L256.3474,456.19L256.26672,456.18915L256.18604,456.18857L256.18604,456.07294L256.18604,455.95728L256.05206,455.95728L255.91806,455.95728L255.91806,455.84583L255.91806,455.7344L255.78548,455.7344L255.6529,455.7344L255.6529,455.81482L255.6529,455.8952L255.57532,455.8952L255.49774,455.8952L255.49774,456.10706L255.49774,456.31918L255.34625,456.3175C255.2478,456.31638,255.19083,456.31494,255.18405,456.3127C255.17842,456.311,255.16713,456.30423,255.15923,456.29776C255.11804,456.2639,255.12622,456.26672,255.05768,456.26193C255.0368,456.2605,255.01537,456.25797,255.01028,456.256C255.00267,456.25345,254.99788,456.25375,254.9849,456.25742C254.97615,456.25967,254.96065,456.26163,254.95049,456.26135C254.92905,456.26108,254.92001,456.26474,254.90395,456.28137L254.89294,456.29297L254.15866,456.29297L253.42465,456.29297L253.40915,456.2718C253.4004,456.26022,253.39024,456.24866,253.38629,456.24612C253.38206,456.24332,253.36908,456.24048,253.35442,456.23907C253.34088,456.23767,253.32254,456.234,253.31352,456.23062L253.29744,456.2244L253.28558,456.2323C253.27487,456.23935,253.27289,456.23993,253.26527,456.23654C253.24695,456.2289,253.23708,456.22977,253.21788,456.2402C253.2083,456.24557,253.19391,456.25092,253.186,456.25204C253.1609,456.25543,253.15076,456.2639,253.15076,456.28137C253.15076,456.29803,253.1468,456.2983,252.98714,456.29916L252.85878,456.2997L252.85822,456.2842C252.85794,456.27576,252.85625,456.19083,252.85455,456.0955C252.85258,456.00015,252.8506,455.9189,252.85033,455.91495C252.85004,455.911,252.84947,455.89832,252.8492,455.88617L252.8489,455.86475L252.77133,455.86615L252.69376,455.86786L252.69376,455.83823C252.69376,455.77673,252.6901,455.7062,252.687,455.70676C252.6853,455.70706,252.62607,455.70847,252.55554,455.70987 Z M254.73836,456.37982L254.81847,456.38068L254.8165,456.39676C254.8148,456.41257,254.8148,456.41284,254.82552,456.423C254.83144,456.42865,254.8416,456.43652,254.84808,456.44077C254.86304,456.4498,254.93639,456.4873,254.97813,456.50705C255.01819,456.52597,255.01846,456.52652,255.02834,456.59338C255.04498,456.7082,255.04498,456.70874,255.04498,456.79507C255.04498,456.8515,255.04358,456.88928,255.04076,456.91214C255.03427,456.9632,255.03511,457.14346,255.0416,457.19846C255.04442,457.22104,255.04724,457.24274,255.0478,457.2467C255.04893,457.25348,255.04697,457.25488,255.01959,457.2687C254.94034,457.30792,254.88052,457.3728,254.75049,457.56067C254.72679,457.5948,254.70535,457.6264,254.7028,457.63092C254.69914,457.63712,254.68701,457.6447,254.65147,457.6625C254.58969,457.69354,254.51521,457.73386,254.49153,457.7491C254.46416,457.76688,254.4337,457.79453,254.40605,457.8264C254.39279,457.8416,254.37897,457.85742,254.37502,457.86194L254.36797,457.86984L254.34766,457.86447C254.32256,457.858,254.3107,457.85123,254.30252,457.83908C254.2949,457.82782,254.28307,457.792,254.28052,457.77167C254.27855,457.75757,254.27911,457.75616,254.29265,457.735C254.31973,457.6924,254.33243,457.66165,254.34512,457.60748C254.355,457.5649,254.35612,457.56235,254.37108,457.54996C254.38602,457.53754,254.39308,457.5243,254.39758,457.5017C254.40266,457.47546,254.40662,457.35022,254.40465,457.28506C254.40266,457.2185,254.39758,457.1931,254.37813,457.1522C254.34625,457.08478,254.26811,457.01962,254.18376,456.99057C254.1643,456.9838,254.1581,456.98294,254.12254,456.98322C254.08786,456.98322,254.07996,456.98407,254.05766,456.99084C254.04385,456.9951,254.01761,457.0058,253.99985,457.01453C253.96373,457.03232,253.94653,457.04697,253.92847,457.07574C253.92255,457.08505,253.91098,457.1014,253.90224,457.11243C253.8822,457.13782,253.8667,457.16885,253.865,457.1872C253.86388,457.20016,253.86444,457.20242,253.87149,457.20975C253.87827,457.2168,253.8791,457.21933,253.8777,457.23148C253.87685,457.2388,253.87375,457.26447,253.87122,457.28818L253.86613,457.33133L253.85513,457.33752C253.83679,457.3477,253.83257,457.3556,253.83313,457.37814C253.8334,457.39932,253.84836,457.46335,253.85936,457.49072C253.86557,457.5065,253.8667,457.5079,253.88559,457.5172L253.90533,457.5271L253.90732,457.5539C253.91014,457.58887,253.91888,457.63965,253.9279,457.6704C253.93637,457.70032,253.93694,457.71808,253.92903,457.74573C253.91972,457.7793,253.90562,457.80356,253.87996,457.82895C253.85936,457.84982,253.83313,457.86984,253.82721,457.86984C253.82579,457.86984,253.80717,457.85178,253.78601,457.83008C253.74286,457.7855,253.71521,457.7615,253.68419,457.7415C253.66219,457.7271,253.6145,457.70398,253.57953,457.69043C253.5423,457.67606,253.52649,457.656,253.43425,457.50848C253.37134,457.40778,253.31746,457.33725,253.27797,457.30368C253.26302,457.2907,253.21451,457.25742,253.18883,457.2422C253.1832,457.2388,253.1829,457.24304,253.20012,457.14346C253.2176,457.04248,253.22127,457.0103,253.21986,456.96152C253.2193,456.93753,253.21732,456.90707,253.21564,456.8938C253.21169,456.85995,253.21225,456.8151,253.21704,456.78323C253.22551,456.72708,253.276,456.54428,253.29208,456.51242C253.29771,456.50113,253.29575,456.50226,253.36655,456.48053C253.45596,456.4529,253.48898,456.4306,253.49348,456.3945C253.49434,456.38773,253.49574,456.38126,253.4966,456.38013C253.498,456.37787,254.54146,456.3776,254.73836,456.37982 Z"/> </g> </g> </g> </svg>